# xmcd CD database file
#
# Track frame offsets:
#	150
#	11010
#	25520
#	46112
#	67992
#	85542
#	109452
#	132092
#	156977
#	185372
#	222467
#	246492
#
# Disc length: 3491 seconds
#
# Revision: 0
# Processed by: cddbd v1.5.2PL0 Copyright (c) Steve Scherf et al.
# Submitted via: CDex 1.70beta2
#
DISCID=9c0da10c
DTITLE=世界宗教音楽ライブラリー - ユダヤの祭礼楽
DYEAR=2000
DGENRE=World
TTITLE0=(イスラエルの人びとは安息日を守り)
TTITLE1=(イスラエルの人びとは安息日を守り)
TTITLE2=詩編第93編
TTITLE3=(永遠の愛)
TTITLE4=安息日祈祷歌のメドレー
TTITLE5=(主は祝福したまう)
TTITLE6=(主のしもべ)
TTITLE7=(見分けるお方)
TTITLE8=(偉大なるショーファル)
TTITLE9=聖日祈祷歌のメドレー
TTITLE10=(憐れみにみちた神)
TTITLE11=(祝福されよ,主に信頼する人は)
EXTD=YEAR: 2000
EXTT0=
EXTT1=
EXTT2=
EXTT3=
EXTT4=
EXTT5=
EXTT6=
EXTT7=
EXTT8=
EXTT9=
EXTT10=
EXTT11=
PLAYORDER=
